<?xml version="1.0" encoding="UTF-8"?>
<svg width="64px" height="62px" viewBox="0 0 64 62" version="1.1" xmlns="http://www.w3.org/2000/svg" xmlns:xlink="http://www.w3.org/1999/xlink">
    <!-- Generator: Sketch 3.7.2 (28276) - http://www.bohemiancoding.com/sketch -->
    <title>Group 2</title>
    <desc>Created with Sketch.</desc>
    <defs></defs>
    <g id="Page-1" stroke="none" stroke-width="1" fill="none" fill-rule="evenodd">
        <g id="Letter" transform="translate(-220.000000, -342.000000)">
            <g id="Group-2" transform="translate(220.000000, 342.000000)">
                <g id="logo-flyweb-white" fill="#FFFFFF">
                    <g id="Layer_1">
                        <circle id="Oval" cx="32" cy="46" r="6"></circle>
                        <g id="Group" transform="translate(0.000000, 1.000000)">
                            <path d="M6.894,8.255 C4.64,9.802 2.508,11.559 0.533,13.534 L0.18,13.887 L3.716,17.423 L4.07,17.069 C5.691,15.449 7.433,13.997 9.266,12.7 C8.126,11.464 7.296,9.943 6.894,8.255 L6.894,8.255 Z" id="Shape"></path>
                            <path d="M63.465,13.532 C55.061,5.128 43.887,0.5 32,0.5 C29.735,0.5 27.496,0.67 25.297,1.001 C26.119,2.441 26.597,4.101 26.609,5.871 C28.382,5.631 30.181,5.5 32,5.5 C42.55,5.5 52.468,9.608 59.928,17.067 L60.282,17.421 L63.819,13.886 L63.465,13.532 L63.465,13.532 Z" id="Shape"></path>
                        </g>
                        <path d="M16.613,4.94 C17.716,4.94 18.613,5.837 18.613,6.94 C18.613,8.043 17.716,8.94 16.613,8.94 C15.51,8.94 14.613,8.043 14.613,6.94 C14.613,5.837 15.51,4.94 16.613,4.94 L16.613,4.94 Z M16.613,0.94 C13.3,0.94 10.613,3.627 10.613,6.94 C10.613,10.253 13.3,12.94 16.613,12.94 C19.926,12.94 22.613,10.253 22.613,6.94 C22.613,3.627 19.926,0.94 16.613,0.94 L16.613,0.94 L16.613,0.94 Z" id="Shape"></path>
                        <g id="Group" transform="translate(17.000000, 27.000000)">
                            <path d="M29.492,4.502 C27.639,2.65 25.49,1.21 23.158,0.197 C23.189,0.521 23.208,0.849 23.208,1.181 C23.208,2.658 22.878,4.055 22.302,5.318 C23.631,6.03 24.863,6.941 25.959,8.037 L26.313,8.391 L29.846,4.856 L29.492,4.502 L29.492,4.502 Z" id="Shape"></path>
                            <path d="M3.262,2.207 C2.29,2.89 1.362,3.646 0.504,4.504 L0.15,4.858 L3.686,8.395 L4.04,8.041 C4.39,7.691 4.755,7.362 5.131,7.051 C4.118,5.66 3.446,4.007 3.262,2.207 L3.262,2.207 Z" id="Shape"></path>
                        </g>
                        <path d="M30.209,26.182 C31.311,26.182 32.208,27.079 32.208,28.182 C32.208,29.285 31.312,30.182 30.209,30.182 C29.106,30.182 28.209,29.285 28.209,28.182 C28.209,27.079 29.106,26.182 30.209,26.182 L30.209,26.182 Z M30.209,22.182 C26.896,22.182 24.209,24.868 24.209,28.182 C24.209,31.494 26.896,34.182 30.209,34.182 C33.522,34.182 36.208,31.494 36.208,28.182 C36.208,24.867 33.522,22.182 30.209,22.182 L30.209,22.182 L30.209,22.182 Z" id="Shape"></path>
                        <g id="Group" transform="translate(8.000000, 13.000000)">
                            <path d="M24.207,4.716 C24.207,3.219 24.547,1.804 25.139,0.528 C24.76,0.515 24.381,0.5 24,0.5 C15.319,0.5 7.157,3.881 1.019,10.02 L0.665,10.374 L4.2,13.909 L4.554,13.555 C9.748,8.36 16.654,5.5 24,5.5 C24.083,5.5 24.165,5.505 24.247,5.506 C24.227,5.245 24.207,4.982 24.207,4.716 L24.207,4.716 Z" id="Shape"></path>
                            <path d="M46.98,10.018 C45.993,9.031 44.947,8.122 43.861,7.28 C43.414,8.96 42.548,10.468 41.37,11.679 C42.087,12.265 42.779,12.889 43.443,13.553 L43.797,13.907 L47.334,10.372 L46.98,10.018 L46.98,10.018 Z" id="Shape"></path>
                        </g>
                        <path d="M42.207,15.716 C43.31,15.716 44.207,16.613 44.207,17.716 C44.207,18.819 43.31,19.716 42.207,19.716 C41.104,19.716 40.207,18.819 40.207,17.716 C40.207,16.613 41.104,15.716 42.207,15.716 L42.207,15.716 Z M42.207,11.716 C38.894,11.716 36.207,14.403 36.207,17.716 C36.207,21.029 38.894,23.716 42.207,23.716 C45.52,23.716 48.207,21.029 48.207,17.716 C48.207,14.403 45.521,11.716 42.207,11.716 L42.207,11.716 L42.207,11.716 Z" id="Shape"></path>
                    </g>
                </g>
                <g id="Raspberry_Pi_Logo" transform="translate(22.000000, 36.000000)">
                    <g id="Group">
                        <path d="M5.4227758,0.0233523132 C5.29397509,0.0273494662 5.15525979,0.0749288256 4.99793594,0.199064057 C4.61252669,0.0504412811 4.23886121,-0.0011886121 3.90469751,0.301380783 C3.38868327,0.234448399 3.22099644,0.372562278 3.09395018,0.533807829 C2.98067616,0.531459075 2.24629893,0.417366548 1.90953737,0.919715302 C1.06323843,0.819572954 0.795765125,1.4175089 1.09882562,1.97508897 C0.925982206,2.24266904 0.746886121,2.50701068 1.15109609,3.01711744 C1.00810676,3.30122776 1.09674021,3.6094306 1.4335694,3.98241993 C1.34467616,4.38181495 1.51940925,4.66359431 1.83282206,4.88320285 C1.77420641,5.42975089 2.33403203,5.7475089 2.50118505,5.86074733 C2.56537367,6.17920641 2.69915302,6.4797153 3.33858719,6.64587189 C3.44403915,7.12046263 3.82833808,7.20241993 4.20047331,7.30202847 C2.9705089,8.01697509 1.91574021,8.95765125 1.92289324,11.2657295 L1.7427331,11.5871246 C0.332412811,12.4447758 -0.936448399,15.2013594 1.0477153,17.4419288 C1.17732028,18.1432811 1.39467616,18.6470534 1.58821352,19.2045979 C1.8776726,21.4512527 3.76679004,22.5032456 4.26504626,22.6276584 C4.99518861,23.1838149 5.77280427,23.7115374 6.82511744,24.0811815 C7.81711032,25.1042776 8.89180783,25.4942064 9.97237722,25.4935658 C9.98821886,25.4935559 10.0043534,25.4937438 10.0201993,25.4935658 C11.1007687,25.4942384 12.1754306,25.1043132 13.1674591,24.0811815 C14.2197367,23.7115374 14.9973879,23.1838149 15.7275302,22.6276584 C16.2257865,22.5032491 18.1148968,21.4512527 18.404363,19.2045979 C18.5978826,18.6470534 18.8152527,18.1432811 18.9448612,17.4419288 C20.9289893,15.2011815 19.6601637,12.4444199 18.2498078,11.5867687 L18.0693808,11.2654164 C18.0765221,8.95751601 17.0217651,8.01683986 15.7918007,7.3017153 C16.1639359,7.20212811 16.548242,7.12017082 16.6536868,6.64555872 C17.2931174,6.47937367 17.4269253,6.17886833 17.491089,5.86043416 C17.6582705,5.74722064 18.2180641,5.42943772 18.159452,4.88288968 C18.4728577,4.66325979 18.6476014,4.38146619 18.5587046,3.98210676 C18.8955338,3.60911744 18.9841851,3.30093238 18.8411779,3.01680427 C19.2454484,2.50691103 19.066089,2.2425694 18.8934911,1.97498932 C19.1963381,1.41740925 18.9290783,0.81947331 18.0824591,0.919615658 C17.7458043,0.417266904 17.0116406,0.531359431 16.8981174,0.533708185 C16.7710712,0.372462633 16.6034555,0.234348754 16.0874413,0.301281139 C15.7532776,-0.00128825623 15.3796121,0.050341637 14.9942028,0.198967972 C14.5365516,-0.162170819 14.2337046,0.127320285 13.8877972,0.236775801 C13.3337046,0.0557188612 13.2070142,0.303715302 12.9347722,0.404704626 C12.3305018,0.277014235 12.1468719,0.555024911 11.8571922,0.848441281 L11.5202242,0.841768683 C10.6088007,1.37888612 10.1560249,2.47258719 9.99552669,3.03482918 C9.83495374,2.47248043 9.38321352,1.37877936 8.47196797,0.841768683 L8.135,0.848441281 C7.84496441,0.555024911 7.66133452,0.277017794 7.05706406,0.404704626 C6.78482206,0.303715302 6.65848754,0.0557188612 6.10403915,0.236775801 C5.87700356,0.16494306 5.66820285,0.0156227758 5.42233096,0.023252669 L5.4227758,0.0233523132 Z" id="Shape" fill="#000000"></path>
                        <path d="M3.60818505,2.38633452 C6.02626335,3.63298932 7.43202847,4.64145907 8.20213523,5.50035587 C7.80775801,7.08106762 5.75032028,7.15320285 4.99800712,7.10886121 C5.1520427,7.0371637 5.28056584,6.95128826 5.32613879,6.81933452 C5.13736655,6.68517794 4.46802491,6.80519964 4.00072954,6.5426726 C4.18023488,6.50548399 4.26419929,6.46925623 4.3481637,6.33678648 C3.90666904,6.19597865 3.43111744,6.07463701 3.15143772,5.84137722 C3.30237367,5.84324199 3.44329537,5.87514235 3.64040569,5.73843416 C3.24496085,5.52533096 2.82300356,5.35644128 2.49517438,5.03071174 C2.69962989,5.02570712 2.92004982,5.02869039 2.98414235,4.95350534 C2.62222064,4.72928114 2.31684698,4.47991103 2.06407117,4.20717082 C2.35019217,4.2417089 2.47101068,4.21196726 2.54019217,4.16213167 C2.26660498,3.88191103 1.92033452,3.64529893 1.75524555,3.29999644 C1.96768683,3.37321708 2.1620427,3.40124555 2.30214947,3.29356228 C2.20918149,3.08382918 1.81086833,2.96012456 1.58154448,2.47000356 C1.80518861,2.49168968 2.04239858,2.51879715 2.0898363,2.47000356 C1.98602847,2.04708541 1.80791459,1.8093274 1.63321708,1.56299288 C2.11186477,1.55587544 2.8370605,1.56484342 2.80421352,1.52438078 L2.50825267,1.22198577 C2.97579715,1.09610676 3.45419573,1.24220498 3.8014911,1.35066548 C3.9574306,1.22761566 3.79872954,1.07201779 3.60847331,0.913156584 C4.00580427,0.966202847 4.36484342,1.05754804 4.68936299,1.18338434 C4.86275801,1.02682562 4.57676868,0.870263345 4.43843772,0.713704626 C5.05228114,0.83016726 5.31235231,0.993800712 5.57082206,1.1576548 C5.7583452,0.977911032 5.5815573,0.825153025 5.45501068,0.668686833 C5.91785765,0.84011032 6.15625623,1.06142705 6.40725267,1.2798968 C6.49234875,1.16505338 6.62344128,1.080879 6.46516014,0.803775801 C6.79377936,0.99319573 7.04128114,1.21640925 7.22437722,1.46648043 C7.42770107,1.33701779 7.34551246,1.15996797 7.34662278,0.996800712 C7.68813879,1.2746121 7.904879,1.57025267 8.17018149,1.85893594 C8.22362278,1.82002491 8.27041637,1.68805694 8.31172954,1.4793274 C9.12649822,2.26979004 10.2777794,4.26075089 8.60769039,5.05014591 C7.18633808,3.87790391 5.48882918,3.02583986 3.60769039,2.38665836 L3.60818505,2.38633452 Z" id="Shape" fill="#75A928"></path>
                        <path d="M16.4384342,2.38633452 C14.0206406,3.63309609 12.6149466,4.64128114 11.8448399,5.50035587 C12.2392171,7.08106762 14.2966548,7.15320285 15.048968,7.10886121 C14.8949324,7.0371637 14.7664093,6.95128826 14.7208363,6.81933452 C14.9096085,6.68517794 15.5789502,6.80519964 16.0462456,6.5426726 C15.8667402,6.50548399 15.7827758,6.46925623 15.6988114,6.33678648 C16.140306,6.19597865 16.6158577,6.07463701 16.8955374,5.84137722 C16.7446014,5.84324199 16.6036797,5.87514235 16.4065694,5.73843416 C16.8020142,5.52533096 17.2239715,5.35644128 17.5518007,5.03071174 C17.3473452,5.02570712 17.1269253,5.02869039 17.0628327,4.95350534 C17.4247544,4.72928114 17.7301281,4.47991103 17.9829039,4.20717082 C17.6967829,4.2417089 17.5759644,4.21196726 17.5067829,4.16213167 C17.7803701,3.88191103 18.1266406,3.64529893 18.2917295,3.29999644 C18.0792883,3.37321708 17.8849324,3.40124555 17.7448256,3.29356228 C17.8377936,3.08382918 18.2361068,2.96012456 18.4654306,2.47000356 C18.2417865,2.49168968 18.0045765,2.51879715 17.9571388,2.47000356 C18.0611352,2.04690747 18.2392562,1.80914947 18.4139359,1.56281495 C17.9352883,1.55570712 17.2100925,1.56467794 17.2429395,1.52420996 L17.5389004,1.22181495 C17.0713559,1.09593594 16.5929573,1.24203416 16.2456619,1.35049466 C16.0897224,1.22744484 16.2484235,1.07184698 16.4386797,0.912985765 C16.0413488,0.966032028 15.6823096,1.05737722 15.35779,1.18321352 C15.184395,1.0266548 15.4703843,0.870092527 15.6087153,0.713533808 C14.9948719,0.829996441 14.7348007,0.993629893 14.476331,1.15748399 C14.2888078,0.977740214 14.4655957,0.824982206 14.5921423,0.668516014 C14.1292954,0.839939502 13.8908968,1.06125623 13.6399004,1.27972598 C13.5548043,1.16488256 13.4237117,1.08070819 13.5819929,0.803604982 C13.2533737,0.993024911 13.0058719,1.21623843 12.8227758,1.46630961 C12.619452,1.33684698 12.7016406,1.15979715 12.7005302,0.996629893 C12.3590142,1.27444128 12.142274,1.57008185 11.8769715,1.85876512 C11.8235302,1.81985409 11.7767367,1.68788612 11.7354235,1.47915658 C10.9206548,2.26961922 9.76937367,4.26058007 11.4394626,5.04997509 C12.8600676,3.87748399 14.5574698,3.0254911 16.4387509,2.38630961 L16.4384342,2.38633452 Z" id="Shape" fill="#75A928"></path>
                        <path d="M12.951642,18.4826247 C12.9571167,19.4401753 12.4062667,20.3271566 11.5078687,20.8073951 C10.6094707,21.2876337 9.50101592,21.2876337 8.60261792,20.8073951 C7.70421993,20.3271566 7.1533699,19.4401753 7.15884459,18.4826247 C7.1533699,17.525074 7.70421993,16.6380928 8.60261792,16.1578542 C9.50101592,15.6776156 10.6094707,15.6776156 11.5078687,16.1578542 C12.4062667,16.6380928 12.9571167,17.525074 12.951642,18.4826247 L12.951642,18.4826247 Z" id="Shape" fill="#BC1142"></path>
                        <path d="M9.75452925,13.410065 C9.75452927,14.3382036 9.17033366,15.195839 8.22200325,15.6599083 C7.27367284,16.1239776 6.10528159,16.1239776 5.15695118,15.6599083 C4.20862077,15.195839 3.62442516,14.3382036 3.62442518,13.410065 C3.62442515,12.4819264 4.20862076,11.6242909 5.15695117,11.1602216 C6.10528158,10.6961523 7.27367284,10.6961523 8.22200326,11.1602216 C9.17033367,11.6242909 9.75452928,12.4819264 9.75452925,13.410065 L9.75452925,13.410065 Z" id="Shape" fill="#BC1142" transform="translate(6.689477, 13.410065) rotate(-56.542503) translate(-6.689477, -13.410065) "></path>
                        <path d="M16.3734474,13.2677162 C16.3734474,14.1958548 15.7892518,15.0534902 14.8409214,15.5175596 C13.892591,15.9816289 12.7241998,15.9816289 11.7758693,15.5175596 C10.8275389,15.0534902 10.2433433,14.1958548 10.2433433,13.2677162 C10.2433433,12.3395776 10.8275389,11.4819422 11.7758693,11.0178729 C12.7241998,10.5538035 13.892591,10.5538035 14.8409214,11.0178729 C15.7892518,11.4819422 16.3734474,12.3395776 16.3734474,13.2677162 L16.3734474,13.2677162 Z" id="Shape" fill="#BC1142" transform="translate(13.308395, 13.267716) rotate(236.542503) translate(-13.308395, -13.267716) "></path>
                        <path d="M2.38113879,12.1384342 C3.67686833,11.7911032 2.81857651,17.4989324 1.76430605,17.030605 C0.604626335,16.0978648 0.231103203,13.3661922 2.38113879,12.1384342 L2.38113879,12.1384342 Z" id="Shape" fill="#BC1142"></path>
                        <path d="M17.3551601,12.0672598 C16.0592883,11.7200391 16.9177224,17.4281139 17.9719929,16.9597865 C19.1316726,16.0269395 19.5051957,13.2950178 17.3551601,12.0672598 L17.3551601,12.0672598 Z" id="Shape" fill="#BC1142"></path>
                        <path d="M12.952669,7.81672598 C15.18879,7.43914591 17.0494662,8.76768683 16.9743772,11.1924555 C16.9008221,12.1220285 12.1288256,7.95512456 12.952669,7.81672598 L12.952669,7.81672598 Z" id="Shape" fill="#BC1142"></path>
                        <path d="M6.77437722,7.7455516 C4.53807829,7.36797153 2.67758007,8.69679715 2.75266904,11.1213523 C2.82622776,12.0508897 7.59822064,7.88398577 6.77437722,7.7455516 L6.77437722,7.7455516 Z" id="Shape" fill="#BC1142"></path>
                        <path d="M9.98647687,7.18007117 C8.65185053,7.14535658 7.37099644,8.17060498 7.36790036,8.7652669 C7.36417722,9.48782918 8.42309609,10.2276512 9.9955516,10.2464057 C11.6013523,10.2579078 12.6260142,9.65423488 12.6311744,8.90854093 C12.6370406,8.06370107 11.1707117,7.16701068 9.98644128,7.18003559 L9.98647687,7.18007117 Z" id="Shape" fill="#BC1142"></path>
                        <path d="M10.0679715,21.997153 C11.2315658,21.9463665 12.7929181,22.3719573 12.7959786,22.9365125 C12.8152918,23.4847331 11.3799644,24.7233808 9.99078292,24.6994306 C8.55209964,24.7614911 7.14135231,23.5209253 7.15982206,23.0909253 C7.13828968,22.4604626 8.91163701,21.9682206 10.0679715,21.997153 L10.0679715,21.997153 Z" id="Shape" fill="#BC1142"></path>
                        <path d="M5.77010676,18.6512456 C6.59854093,19.6493238 6.97619217,21.4028114 6.28483986,21.9197153 C5.63078292,22.314306 4.04241993,22.1518007 2.91345196,20.5299644 C2.15206406,19.1690391 2.25017794,17.7841637 2.78477224,17.377331 C3.58420285,16.8903559 4.81939858,17.5481139 5.77014591,18.6512456 L5.77010676,18.6512456 Z" id="Shape" fill="#BC1142"></path>
                        <path d="M14.2,18.3348754 C13.3036655,19.3847687 12.8045552,21.2996441 13.4584342,21.9163701 C14.0836299,22.395516 15.7619573,22.3285409 17.0017082,20.6083274 C17.9019217,19.4529893 17.6002847,17.5235587 17.0860783,17.0111744 C16.3222349,16.4203559 15.2256868,17.1764733 14.1999929,18.3345907 L14.2,18.3348754 Z" id="Shape" fill="#BC1142"></path>
                    </g>
                </g>
            </g>
        </g>
    </g>
</svg>